<svg xmlns="http://www.w3.org/2000/svg" width="149.959" height="107.521" viewBox="0 0 149.959 107.521"><g transform="translate(-1706.376 -820.577)"><path d="M4,4V81H61V4H4M0,0H65V85H0Z" transform="translate(1706.376 842.808) rotate(-20)" fill="#080"/><g transform="translate(-151.829 432.931) rotate(-17)"><g transform="translate(1677.445 963)"><path d="M16.5,4a12.5,12.5,0,1,0,8.839,3.661A12.418,12.418,0,0,0,16.5,4m0-4A16.5,16.5,0,1,1,0,16.5,16.5,16.5,0,0,1,16.5,0Z" transform="translate(-0.446 0)" fill="#080"/></g><g transform="translate(1687.982 971.473)"><path d="M7.332,0a6.075,6.075,0,0,0-5.4,2.854A.753.753,0,0,0,2.1,3.885L3.45,4.911a.753.753,0,0,0,1.043-.13C5.278,3.8,5.861,3.23,7.088,3.23c.965,0,2.158.621,2.158,1.556,0,.707-.584,1.07-1.536,1.6-1.111.623-2.581,1.4-2.581,3.336v.307a.753.753,0,0,0,.753.753H8.154a.753.753,0,0,0,.753-.753V9.853c0-1.344,3.928-1.4,3.928-5.037C12.834,2.078,9.993,0,7.332,0ZM7.017,11.71A2.172,2.172,0,1,0,9.19,13.882,2.175,2.175,0,0,0,7.017,11.71Z" transform="translate(-1.8)" fill="#080"/></g></g><path d="M4,4V81H61V4H4M0,0H65V85H0Z" transform="translate(1745.976 831.729) rotate(-7)" fill="#d42890"/><g transform="matrix(0.985, -0.174, 0.174, 0.985, 1760.613, 853.071)"><path d="M20.811,5a15.811,15.811,0,1,0,11.18,4.631A15.707,15.707,0,0,0,20.811,5m0-5A20.811,20.811,0,1,1,0,20.811,20.811,20.811,0,0,1,20.811,0Z" transform="translate(0 0)" fill="#d42890"/></g><path d="M16.561,1.911V18.472a1.911,1.911,0,0,1-1.911,1.911H5.733a1.911,1.911,0,0,1-1.911-1.911V1.911A1.911,1.911,0,0,1,5.733,0h8.918A1.911,1.911,0,0,1,16.561,1.911ZM20.383,4.22V4.7a.239.239,0,0,1-.239.239h-.717v.239a.239.239,0,0,1-.239.239H17.517V3.5h1.672a.239.239,0,0,1,.239.239v.239h.717a.239.239,0,0,1,.239.239Zm0,3.822V8.52a.239.239,0,0,1-.239.239h-.717V9a.239.239,0,0,1-.239.239H17.517V7.325h1.672a.239.239,0,0,1,.239.239V7.8h.717a.239.239,0,0,1,.239.239Zm0,3.822v.478a.239.239,0,0,1-.239.239h-.717v.239a.239.239,0,0,1-.239.239H17.517V11.147h1.672a.239.239,0,0,1,.239.239v.239h.717A.239.239,0,0,1,20.383,11.864Zm0,3.822v.478a.239.239,0,0,1-.239.239h-.717v.239a.239.239,0,0,1-.239.239H17.517V14.969h1.672a.239.239,0,0,1,.239.239v.239h.717A.239.239,0,0,1,20.383,15.686ZM1.194,14.969H2.866V16.88H1.194a.239.239,0,0,1-.239-.239V16.4H.239A.239.239,0,0,1,0,16.163v-.478a.239.239,0,0,1,.239-.239H.955v-.239A.239.239,0,0,1,1.194,14.969Zm0-3.822H2.866v1.911H1.194a.239.239,0,0,1-.239-.239V12.58H.239A.239.239,0,0,1,0,12.341v-.478a.239.239,0,0,1,.239-.239H.955v-.239A.239.239,0,0,1,1.194,11.147Zm0-3.822H2.866V9.236H1.194A.239.239,0,0,1,.955,9V8.758H.239A.239.239,0,0,1,0,8.52V8.042A.239.239,0,0,1,.239,7.8H.955V7.564A.239.239,0,0,1,1.194,7.325Zm0-3.822H2.866V5.414H1.194a.239.239,0,0,1-.239-.239V4.937H.239A.239.239,0,0,1,0,4.7V4.22a.239.239,0,0,1,.239-.239H.955V3.742A.239.239,0,0,1,1.194,3.5Z" transform="matrix(0.985, -0.174, 0.174, 0.985, 1772.915, 861.685)" fill="#d42890"/><g transform="translate(6.544 -31.812)"><path d="M4,4V81H61V4H4M0,0H65V85H0Z" transform="matrix(0.956, 0.292, -0.292, 0.956, 1787.631, 859.62)" fill="#08f7fe"/><path d="M16.5,4a12.5,12.5,0,1,0,8.839,3.661A12.418,12.418,0,0,0,16.5,4m0-4A16.5,16.5,0,1,1,0,16.5,16.5,16.5,0,0,1,16.5,0Z" transform="matrix(0.966, 0.259, -0.259, 0.966, 1793.587, 888.903)" fill="#08f7fe"/><path d="M8.9,1.928,2.571,10.372H8.9L4.682,18.817,19.459,8.261H11.015l6.333-6.333Z" transform="matrix(0.966, 0.259, -0.259, 0.966, 1797.518, 896.205)" fill="#08f7fe"/></g></g></svg>